<?xml version="1.0" standalone="no"?>
<!DOCTYPE svg PUBLIC "-//W3C//DTD SVG 20010904//EN"
 "http://www.w3.org/TR/2001/REC-SVG-20010904/DTD/svg10.dtd">
<svg version="1.0" xmlns="http://www.w3.org/2000/svg"
 width="260.000000pt" height="260.000000pt" viewBox="0 0 260.000000 260.000000"
 preserveAspectRatio="xMidYMid meet">
<metadata>
Created by potrace 1.14, written by Peter Selinger 2001-2017
</metadata>
<g transform="translate(0.000000,260.000000) scale(0.100000,-0.100000)"
fill="#000000" stroke="none">
<path d="M0 1300 l0 -1300 1300 0 1300 0 0 1300 0 1300 -1300 0 -1300 0 0
-1300z m989 1145 c66 -33 66 -135 1 -425 -34 -150 -39 -179 -50 -280 -16 -146
-28 -239 -34 -248 -3 -5 -9 -35 -15 -68 -5 -32 -26 -128 -45 -212 -19 -84 -44
-217 -55 -295 -18 -126 -63 -336 -91 -423 -6 -17 -10 -44 -10 -61 0 -16 -7
-52 -15 -79 -8 -27 -15 -62 -15 -77 0 -119 -152 -147 -194 -35 -14 38 -64 263
-87 388 -4 25 -13 65 -19 90 -15 61 -28 129 -44 230 -7 47 -18 98 -25 113 -6
16 -11 44 -11 64 0 19 -13 87 -29 151 -16 65 -32 140 -36 167 -4 28 -21 111
-37 185 -16 74 -38 182 -49 240 -11 58 -31 166 -46 240 -34 182 -37 216 -23
251 14 32 55 59 90 59 35 0 77 -27 88 -57 16 -45 31 -110 52 -228 29 -167 56
-306 88 -455 16 -74 33 -157 37 -185 4 -27 20 -102 36 -167 16 -64 29 -132 29
-151 0 -20 5 -48 11 -64 7 -15 18 -66 25 -113 30 -195 35 -213 48 -199 3 2 14
73 26 156 11 83 36 221 56 305 19 84 40 180 45 212 6 33 12 63 15 68 6 9 18
102 34 248 11 101 16 129 50 280 23 103 38 189 46 260 8 65 23 99 53 115 34
18 65 19 100 0z m296 -3 c21 -13 59 -21 125 -25 99 -6 174 -28 280 -82 101
-51 205 -118 266 -172 52 -46 67 -68 99 -141 31 -71 39 -102 43 -168 6 -116
-13 -173 -88 -263 -33 -40 -60 -76 -60 -80 0 -4 -29 -38 -65 -74 -36 -36 -65
-71 -65 -77 0 -5 37 -27 83 -48 97 -45 153 -102 211 -211 50 -95 68 -186 73
-366 9 -282 -31 -363 -221 -449 -73 -34 -120 -47 -231 -66 -103 -17 -244 -50
-286 -66 -68 -25 -103 -28 -138 -10 -17 9 -31 20 -31 25 0 5 -14 14 -30 21
-17 7 -36 22 -43 34 -17 29 -26 360 -35 1266 -6 566 -11 765 -21 795 -22 71
-24 85 -11 115 23 56 90 75 145 42z"/>
<path d="M1375 1503 c2 -395 7 -814 10 -932 l6 -213 27 6 c15 3 68 15 117 26
50 12 113 25 140 30 122 21 153 30 205 53 30 14 62 32 70 39 64 54 44 403 -30
517 -44 69 -65 85 -170 125 -52 20 -110 43 -128 51 -36 16 -72 68 -72 103 0
49 55 131 184 274 34 36 83 95 111 130 46 58 50 67 50 118 0 105 -63 187 -212
276 -99 59 -193 97 -267 108 l-46 7 5 -718z"/>
</g>
</svg>
